<svg xmlns="http://www.w3.org/2000/svg" viewBox="0 0 670 534.83"><defs><style>.cls-1,.cls-7,.cls-8{fill:#fff;}.cls-14,.cls-2,.cls-7,.cls-8{font-size:16px;}.cls-12,.cls-2,.cls-5{fill:#1c55ff;}.cls-2{font-family:OpenSans-Bold, Open Sans;font-weight:700;}.cls-3{fill:#444;}.cls-14,.cls-3,.cls-4,.cls-7{font-family:OpenSans-Regular, Open Sans;}.cls-3,.cls-4{font-weight:400;}.cls-14,.cls-4{fill:#1a1a1a;}.cls-11,.cls-13,.cls-6,.cls-9{fill:none;stroke-miterlimit:10;}.cls-6{stroke:#d6d6d6;}.cls-12,.cls-8{font-family:Poppins-Regular, Poppins;}.cls-9{stroke:#fff;}.cls-11,.cls-13,.cls-9{stroke-width:2px;}.cls-10{fill:#c4d1d6;}.cls-11{stroke:#c4d1d6;}.cls-12{font-size:24.12px;}.cls-13{stroke:#1c55ff;}</style></defs><title>ativo1</title><g id="Camada_2" data-name="Camada 2"><g id="Camada_1-2" data-name="Camada 1"><rect class="cls-1" x="0.5" y="40.5" width="669" height="493.83"/><path class="cls-1" d="M669,41V533.83H1V41H669m1-1H0V534.83H670V40Z"/><text class="cls-2" transform="translate(22 66.66)">Para<tspan class="cls-3" x="36.64" y="0"> </tspan><tspan class="cls-4" x="40.8" y="0">robertoshimoshi@asadvogados.com.br</tspan></text><rect class="cls-5" width="670" height="40"/><line class="cls-6" y1="79.5" x2="670" y2="79.5"/><line class="cls-6" x1="670" y1="119.5" y2="119.5"/><rect class="cls-5" x="25.11" y="473.33" width="130" height="40"/><text class="cls-7" transform="translate(15 25.63)">Nova mensagem</text><text class="cls-2" transform="translate(22 105.16)">Assunto<tspan class="cls-3" x="64.83" y="0"> </tspan><tspan class="cls-4" x="68.98" y="0">Re: Documentos de atividades da semana</tspan></text><text class="cls-8" transform="translate(53.98 498.61)">Enviar</text><line class="cls-9" x1="573" y1="19.96" x2="590" y2="19.96"/><line class="cls-9" x1="607.34" y1="26.09" x2="619.42" y2="14.01"/><polygon class="cls-1" points="613.44 10.72 622.71 10.72 622.71 19.99 613.44 10.72"/><polygon class="cls-1" points="613.42 29.27 604.16 29.27 604.16 20.01 613.42 29.27"/><line class="cls-9" x1="637.04" y1="27.91" x2="652.75" y2="12.2"/><line class="cls-9" x1="652.75" y1="27.91" x2="637.04" y2="12.2"/><rect class="cls-1" x="26.11" y="139.85" width="617.79" height="312.11"/><path class="cls-10" d="M642.89,140.85V451H27.11V140.85H642.89m2-2H25.11V453H644.89V138.85Z"/><line class="cls-11" x1="131" y1="472.96" x2="131" y2="512.96"/><polygon class="cls-1" points="149.72 491.33 143.71 497.34 137.7 491.33 149.72 491.33"/><text class="cls-12" transform="translate(181.31 499.67)">A</text><line class="cls-13" x1="182" y1="504.96" x2="198" y2="504.96"/><path class="cls-13" d="M227.68,489.05v10.8a2.06,2.06,0,0,1-.67,1.52c-1.3,1.19-4.38,3.18-8.21-.11a2,2,0,0,1-.65-1.5V486.09a2,2,0,0,1,.79-1.62,4,4,0,0,1,4.94,0,2,2,0,0,1,.83,1.65v10.41a2,2,0,0,1-3.39,1.42h0a.2.2,0,0,1-.06-.14v-9.38"/><rect class="cls-5" x="622.33" y="488.38" width="16.34" height="16.39"/><path class="cls-5" d="M635.28,484h-2c0-2-.52-2-1.15-2h-3.26c-.64,0-1.16,0-1.16,2h-2c-1.87,0-3.39,0-3.39,3h16.34C638.67,484,637.15,484,635.28,484Z"/><circle class="cls-5" cx="604.71" cy="484.66" r="2.17"/><circle class="cls-5" cx="604.71" cy="493.33" r="2.17"/><circle class="cls-5" cx="604.71" cy="502" r="2.17"/><text class="cls-14" transform="translate(38.05 165.99)">Boa tarde, Roberto, tudo bem?<tspan x="0" y="36">Recebi o seu e-mail, obrigada.</tspan><tspan x="0" y="72">Porém, estou com dúvidas no material 2, 3 e 5. Não entendi muito bem o que é </tspan><tspan x="0" y="90">para eu fazer nestas atividades. Você teria um tempo para me explicar? Podem</tspan><tspan x="588.44" y="90">-</tspan><tspan x="0" y="108">os fazer uma reunião presencial ou, se achar melhor, me chamar por video </tspan><tspan x="0" y="126">chamada, o que preferir.</tspan><tspan x="0" y="162">Espero seu retorno..</tspan><tspan x="0" y="198">Atenciosamente</tspan><tspan x="0" y="216">Rebeca Santos da Silva</tspan><tspan x="0" y="234">Auxiliar Administrativo</tspan><tspan x="0" y="252">A&amp;S Advogados</tspan><tspan x="0" y="270">rebeca.santos@asadvogados.com.br</tspan></text></g></g></svg>