<?xml version="1.0" encoding="utf-8"?>
<!-- Generator: Adobe Illustrator 19.0.0, SVG Export Plug-In . SVG Version: 6.00 Build 0)  -->
<svg version="1.1" id="Camada_1" xmlns="http://www.w3.org/2000/svg" xmlns:xlink="http://www.w3.org/1999/xlink" x="0px" y="0px"
	 viewBox="0 0 670 534.8" style="enable-background:new 0 0 670 534.8;" xml:space="preserve">
<style type="text/css">
	.st0{fill:#FFFFFF;}
	.st1{fill:none;}
	.st2{fill:#1C55FF;}
	.st3{font-family:'OpenSans-Bold';}
	.st4{font-size:16px;}
	.st5{font-family:'OpenSans-Regular';}
	.st6{fill:none;stroke:#1C55FF;stroke-miterlimit:10;}
	.st7{font-family:'Poppins';}
	.st8{fill:#1A1A1A;}
	.st9{font-family:'OpenSans-Italic';}
	.st10{fill:none;stroke:#FFFFFF;stroke-width:2;stroke-miterlimit:10;}
	.st11{fill:#C4D1D6;}
	.st12{fill:none;stroke:#C4D1D6;stroke-width:2;stroke-miterlimit:10;}
</style>
<g id="XMLID_14_">
	<g id="XMLID_59_">
		<rect id="XMLID_70_" x="0" y="40" class="st0" width="670" height="494.8"/>
	</g>
	<rect id="XMLID_5_" x="22" y="54.5" class="st1" width="627" height="14.5"/>
	<text id="XMLID_58_" transform="matrix(1 0 0 1 21.9996 66.658)"><tspan x="0" y="0" class="st2 st3 st4">Para</tspan><input x="36.6" y="0" class="st2 st5 st4"> </input></text>
	<rect id="XMLID_57_" x="0" y="0" class="st2" width="670" height="40"/>
	<line id="XMLID_56_" class="st6" x1="0" y1="79.5" x2="670" y2="79.5"/>
	<line id="XMLID_55_" class="st6" x1="670" y1="119.5" x2="0" y2="119.5"/>
	<g id="XMLID_54_">
		<rect id="XMLID_71_" x="25.1" y="473.3" class="st2" width="130" height="40"/>
	</g>
	<rect id="XMLID_4_" x="15" y="13.5" class="st1" width="346" height="13.1"/>
	<text id="XMLID_53_" transform="matrix(1 0 0 1 15.0001 25.6253)" class="st0 st5 st4">Nova mensagem</text>
	<rect id="XMLID_3_" x="22" y="93" class="st1" width="627" height="15"/>
	<text id="XMLID_52_" transform="matrix(1 0 0 1 22 105.1575)"><tspan x="0" y="0" class="st2 st3 st4">Assunto</tspan><tspan x="64.8" y="0" class="st2 st5 st4"> </tspan></text>
	<rect id="XMLID_2_" x="25.1" y="486.8" class="st1" width="105.9" height="13.1"/>
	<text id="XMLID_51_" transform="matrix(1 0 0 1 40.6377 498.6084)" class="st0 st7 st4">Imprimir</text>
	<rect id="XMLID_1_" x="38" y="153.8" class="st1" width="594.9" height="294.6"/>
	<text id="XMLID_49_" transform="matrix(1 0 0 1 38.0493 165.9944)" class="st8 st9 st4">Escreva aqui</text>
	<g>
		<line id="XMLID_12_" class="st10" x1="573" y1="22" x2="590" y2="22"/>
		<g>
			<line id="XMLID_47_" class="st10" x1="607.3" y1="28.1" x2="619.4" y2="16"/>
			<polygon id="XMLID_46_" class="st0" points="613.4,12.7 622.7,12.7 622.7,22 			"/>
			<polygon id="XMLID_31_" class="st0" points="613.4,31.3 604.2,31.3 604.2,22 			"/>
		</g>
		<g>
			<line id="XMLID_30_" class="st10" x1="637" y1="29.9" x2="652.8" y2="14.2"/>
			<line id="XMLID_29_" class="st10" x1="652.8" y1="29.9" x2="637" y2="14.2"/>
		</g>
	</g>
	<g id="XMLID_19_">
		<path id="XMLID_66_" class="st11" d="M642.9,140.8V451H27.1V140.8H642.9 M644.9,138.8H25.1V453h619.8V138.8L644.9,138.8z"/>
	</g>
	<line id="XMLID_6_" class="st12" x1="131" y1="473" x2="131" y2="513"/>
	<polygon id="XMLID_18_" class="st0" points="149.7,491.3 143.7,497.3 137.7,491.3 	"/>
</g>
</svg>
