<svg id="Camada_1" data-name="Camada 1" xmlns="http://www.w3.org/2000/svg" viewBox="0 0 670 579"><title>bloco email_05</title><rect x="0.5" y="40.5" width="669" height="538" style="fill:#fff"/><path d="M669,41V578H1V41H669m1-1H0V579H670V40Z" transform="translate(0 0)" style="fill:#fff"/><path d="M32.5,59.4a3.94,3.94,0,0,1-1.3,3.2,5.29,5.29,0,0,1-3.7,1.1H26.3v4.6H23.6V55.4h4.1a5.51,5.51,0,0,1,3.6,1A3.51,3.51,0,0,1,32.5,59.4Zm-6.2,2h.9a3.31,3.31,0,0,0,1.9-.5,1.68,1.68,0,0,0,.6-1.4,2,2,0,0,0-.5-1.4,2.35,2.35,0,0,0-1.6-.5H26.4v3.8Z" transform="translate(0 0)" style="fill:#1c55ff"/><path d="M40.9,68.2l-.5-1.3h-.1a3.75,3.75,0,0,1-1.4,1.2,5,5,0,0,1-1.9.3,3.11,3.11,0,0,1-2.2-.8,3.2,3.2,0,0,1-.8-2.3A2.71,2.71,0,0,1,35.1,63a5.71,5.71,0,0,1,3.3-.8l1.7-.1v-.4a1.33,1.33,0,0,0-1.5-1.5,6.74,6.74,0,0,0-2.8.7L35,59.1a7.9,7.9,0,0,1,3.8-.9,4.48,4.48,0,0,1,3,.9,3.17,3.17,0,0,1,1.1,2.6v6.5Zm-.7-4.5h-1a3.23,3.23,0,0,0-1.7.4,1.56,1.56,0,0,0-.6,1.2c0,.8.4,1.1,1.3,1.1a2.46,2.46,0,0,0,1.5-.5,1.68,1.68,0,0,0,.6-1.4v-.8Z" transform="translate(0 0)" style="fill:#1c55ff"/><path d="M51.1,58.2a2.22,2.22,0,0,1,.9.1l-.2,2.5a2,2,0,0,0-.8-.1,2.58,2.58,0,0,0-2,.7,2.41,2.41,0,0,0-.7,1.8v5H45.6V58.4h2L48,60h.1a3,3,0,0,1,1.2-1.3A4.07,4.07,0,0,1,51.1,58.2Z" transform="translate(0 0)" style="fill:#1c55ff"/><path d="M60,68.2l-.5-1.3h-.1A3.75,3.75,0,0,1,58,68.1a5,5,0,0,1-1.9.3,3.11,3.11,0,0,1-2.2-.8,3.2,3.2,0,0,1-.8-2.3A2.71,2.71,0,0,1,54.2,63a5.71,5.71,0,0,1,3.3-.8l1.7-.1v-.4a1.33,1.33,0,0,0-1.5-1.5,6.74,6.74,0,0,0-2.8.7L54,59.1a7.9,7.9,0,0,1,3.8-.9,4.48,4.48,0,0,1,3,.9,3.17,3.17,0,0,1,1.1,2.6v6.5Zm-.8-4.5h-1a3.23,3.23,0,0,0-1.7.4,1.56,1.56,0,0,0-.6,1.2c0,.8.4,1.1,1.3,1.1a2.46,2.46,0,0,0,1.5-.5,1.68,1.68,0,0,0,.6-1.4v-.8Z" transform="translate(0 0)" style="fill:#1c55ff"/><path d="M73.8,58.4a4.87,4.87,0,0,1,1.2.1l-.2,1.4a4.48,4.48,0,0,0-1.1-.1,2.66,2.66,0,0,0-2,.9,3.19,3.19,0,0,0-.8,2.4v5.2H69.4V58.7h1.2l.2,1.8h.1A6.39,6.39,0,0,1,72.2,59,2.45,2.45,0,0,1,73.8,58.4Z" transform="translate(0 0)" style="fill:#1a1a1a"/><path d="M85.1,63.4a5.31,5.31,0,0,1-1.2,3.7,4.16,4.16,0,0,1-3.3,1.3,4.38,4.38,0,0,1-2.3-.6,3.53,3.53,0,0,1-1.5-1.7,6.84,6.84,0,0,1-.5-2.7,5.31,5.31,0,0,1,1.2-3.7,4.16,4.16,0,0,1,3.3-1.3A4.08,4.08,0,0,1,84,59.7,5.45,5.45,0,0,1,85.1,63.4Zm-7.3,0a4.46,4.46,0,0,0,.7,2.8,2.72,2.72,0,0,0,2.2,1,2.46,2.46,0,0,0,2.2-1,4.46,4.46,0,0,0,.7-2.8,4.46,4.46,0,0,0-.7-2.8,2.72,2.72,0,0,0-2.2-1,2.66,2.66,0,0,0-2.2.9A4.6,4.6,0,0,0,77.8,63.4Z" transform="translate(0 0)" style="fill:#1a1a1a"/><path d="M92.1,58.4A3.35,3.35,0,0,1,95,59.7a5.82,5.82,0,0,1,1,3.7,5.82,5.82,0,0,1-1.1,3.7A3.47,3.47,0,0,1,92,68.4a4.67,4.67,0,0,1-1.7-.3A2.76,2.76,0,0,1,89,67h0l-.3,1.2h-1V54.5h1.5v3.3a12.75,12.75,0,0,1-.1,2h.1A3.3,3.3,0,0,1,92.1,58.4Zm-.2,1.2a2.66,2.66,0,0,0-2.2.9,5.11,5.11,0,0,0-.7,2.9,4.42,4.42,0,0,0,.7,2.9,2.66,2.66,0,0,0,2.2.9,2.12,2.12,0,0,0,2-1,5.49,5.49,0,0,0,.7-2.8,4.28,4.28,0,0,0-.7-2.8A2.33,2.33,0,0,0,91.9,59.6Z" transform="translate(0 0)" style="fill:#1a1a1a"/><path d="M102.8,68.4a4.52,4.52,0,0,1-3.4-1.3,5.22,5.22,0,0,1-1.2-3.6,5.82,5.82,0,0,1,1.1-3.7,4,4,0,0,1,3.1-1.4,3.7,3.7,0,0,1,2.9,1.2,4.5,4.5,0,0,1,1.1,3.1v.9H99.8a3.57,3.57,0,0,0,.9,2.6,3,3,0,0,0,2.3.9,7,7,0,0,0,3.1-.7v1.3a8.8,8.8,0,0,1-1.5.5A11,11,0,0,1,102.8,68.4Zm-.4-8.8a2.2,2.2,0,0,0-1.8.8,3.34,3.34,0,0,0-.8,2.1h5a3.28,3.28,0,0,0-.6-2.1A2.5,2.5,0,0,0,102.4,59.6Z" transform="translate(0 0)" style="fill:#1a1a1a"/><path d="M113.2,58.4a4.87,4.87,0,0,1,1.2.1l-.2,1.4a4.48,4.48,0,0,0-1.1-.1,2.66,2.66,0,0,0-2,.9,3.19,3.19,0,0,0-.8,2.4v5.2h-1.5V58.7H110l.2,1.8h.1a6.39,6.39,0,0,1,1.3-1.5A2.45,2.45,0,0,1,113.2,58.4Z" transform="translate(0 0)" style="fill:#1a1a1a"/><path d="M119.3,67.2a1.48,1.48,0,0,0,.7-.1c.2,0,.4-.1.6-.1v1.1a6.37,6.37,0,0,1-.7.2c-.3,0-.6.1-.8.1-1.9,0-2.8-1-2.8-2.9V59.8h-1.4V59l1.4-.6.6-2.1h.8v2.2h2.8v1.1h-2.8v5.7a1.7,1.7,0,0,0,.4,1.3A1.74,1.74,0,0,0,119.3,67.2Z" transform="translate(0 0)" style="fill:#1a1a1a"/><path d="M130.8,63.4a5.31,5.31,0,0,1-1.2,3.7,4.16,4.16,0,0,1-3.3,1.3,4.38,4.38,0,0,1-2.3-.6,3.53,3.53,0,0,1-1.5-1.7,6.84,6.84,0,0,1-.5-2.7,5.31,5.31,0,0,1,1.2-3.7,4.16,4.16,0,0,1,3.3-1.3,4.08,4.08,0,0,1,3.2,1.3A5.45,5.45,0,0,1,130.8,63.4Zm-7.3,0a4.46,4.46,0,0,0,.7,2.8,2.72,2.72,0,0,0,2.2,1,2.46,2.46,0,0,0,2.2-1,4.46,4.46,0,0,0,.7-2.8,4.46,4.46,0,0,0-.7-2.8,2.72,2.72,0,0,0-2.2-1,2.66,2.66,0,0,0-2.2.9A4.6,4.6,0,0,0,123.5,63.4Z" transform="translate(0 0)" style="fill:#1a1a1a"/><path d="M139.6,65.6a2.39,2.39,0,0,1-1,2.1,4.65,4.65,0,0,1-2.8.7,6.12,6.12,0,0,1-3-.6V66.4l1.5.6a3.89,3.89,0,0,0,1.5.2,3.21,3.21,0,0,0,1.8-.4,1.08,1.08,0,0,0,.6-1.1,1.39,1.39,0,0,0-.5-1,5.57,5.57,0,0,0-1.9-.9,6.75,6.75,0,0,1-1.9-.9,1.55,1.55,0,0,1-.8-.8,2,2,0,0,1-.3-1.1,2.17,2.17,0,0,1,1-1.9,4.21,4.21,0,0,1,2.6-.7,7.65,7.65,0,0,1,3,.6l-.5,1.2a6.9,6.9,0,0,0-2.6-.6,3.51,3.51,0,0,0-1.6.3.87.87,0,0,0-.5.9,1.45,1.45,0,0,0,.2.7,1,1,0,0,0,.6.5c.3.1.9.4,1.7.7A5.34,5.34,0,0,1,139,64,2.27,2.27,0,0,1,139.6,65.6Z" transform="translate(0 0)" style="fill:#1a1a1a"/><path d="M148.5,68.2V62a3,3,0,0,0-.5-1.8,2.06,2.06,0,0,0-1.7-.6,2.79,2.79,0,0,0-2.2.8,4.15,4.15,0,0,0-.7,2.7v5H142V54.5h1.5v4.1a4.12,4.12,0,0,1-.1,1.2h.1a3.18,3.18,0,0,1,1.2-1.1,3.42,3.42,0,0,1,1.8-.4,4.14,4.14,0,0,1,2.7.8,3.51,3.51,0,0,1,.9,2.7v6.3h-1.6Z" transform="translate(0 0)" style="fill:#1a1a1a"/><path d="M152.9,56a1.17,1.17,0,0,1,.2-.7,1.07,1.07,0,0,1,.6-.2,1.42,1.42,0,0,1,.6.2,1,1,0,0,1,0,1.4.73.73,0,0,1-.6.2,1.07,1.07,0,0,1-.6-.2A1.45,1.45,0,0,1,152.9,56Zm1.6,12.2H153V58.6h1.5Z" transform="translate(0 0)" style="fill:#1a1a1a"/><path d="M169.8,68.2V61.9a2.65,2.65,0,0,0-.5-1.7,1.75,1.75,0,0,0-1.5-.6,2.48,2.48,0,0,0-2,.8,3.81,3.81,0,0,0-.7,2.4v5.4h-1.5V61.9a2.65,2.65,0,0,0-.5-1.7,1.75,1.75,0,0,0-1.5-.6,2.48,2.48,0,0,0-2,.8,4.47,4.47,0,0,0-.6,2.7v5.1h-1.5V58.6h1.2l.2,1.3h.1a3.18,3.18,0,0,1,1.2-1.1,3.29,3.29,0,0,1,1.7-.4,2.93,2.93,0,0,1,3,1.6h.1a3.45,3.45,0,0,1,1.2-1.2,3.81,3.81,0,0,1,1.9-.4,3.29,3.29,0,0,1,2.4.8,4,4,0,0,1,.8,2.7v6.3Z" transform="translate(0 0)" style="fill:#1a1a1a"/><path d="M182.6,63.4a5.31,5.31,0,0,1-1.2,3.7,4.16,4.16,0,0,1-3.3,1.3,4.38,4.38,0,0,1-2.3-.6,3.53,3.53,0,0,1-1.5-1.7,6.84,6.84,0,0,1-.5-2.7,5.31,5.31,0,0,1,1.2-3.7,4.16,4.16,0,0,1,3.3-1.3,4.08,4.08,0,0,1,3.2,1.3A5.45,5.45,0,0,1,182.6,63.4Zm-7.3,0a4.46,4.46,0,0,0,.7,2.8,2.72,2.72,0,0,0,2.2,1,2.46,2.46,0,0,0,2.2-1,4.46,4.46,0,0,0,.7-2.8,4.46,4.46,0,0,0-.7-2.8,2.72,2.72,0,0,0-2.2-1,2.66,2.66,0,0,0-2.2.9A4.6,4.6,0,0,0,175.3,63.4Z" transform="translate(0 0)" style="fill:#1a1a1a"/><path d="M191.4,65.6a2.39,2.39,0,0,1-1,2.1,4.65,4.65,0,0,1-2.8.7,6.12,6.12,0,0,1-3-.6V66.4l1.5.6a3.89,3.89,0,0,0,1.5.2,3.21,3.21,0,0,0,1.8-.4,1.08,1.08,0,0,0,.6-1.1,1.39,1.39,0,0,0-.5-1,5.57,5.57,0,0,0-1.9-.9,6.75,6.75,0,0,1-1.9-.9,1.55,1.55,0,0,1-.8-.8,2,2,0,0,1-.3-1.1,2.17,2.17,0,0,1,1-1.9,4.21,4.21,0,0,1,2.6-.7,7.65,7.65,0,0,1,3,.6l-.5,1.2a6.9,6.9,0,0,0-2.6-.6,3.51,3.51,0,0,0-1.6.3.87.87,0,0,0-.5.9,1.45,1.45,0,0,0,.2.7,1,1,0,0,0,.6.5c.3.1.9.4,1.7.7a5.34,5.34,0,0,1,2.3,1.3A2.27,2.27,0,0,1,191.4,65.6Z" transform="translate(0 0)" style="fill:#1a1a1a"/><path d="M200.3,68.2V62a3,3,0,0,0-.5-1.8,2.06,2.06,0,0,0-1.7-.6,2.79,2.79,0,0,0-2.2.8,4.15,4.15,0,0,0-.7,2.7v5h-1.5V54.5h1.5v4.1a4.12,4.12,0,0,1-.1,1.2h.1a3.18,3.18,0,0,1,1.2-1.1,3.42,3.42,0,0,1,1.8-.4,4.14,4.14,0,0,1,2.7.8,3.51,3.51,0,0,1,.9,2.7v6.3h-1.5Z" transform="translate(0 0)" style="fill:#1a1a1a"/><path d="M204.7,56a1.17,1.17,0,0,1,.2-.7,1.07,1.07,0,0,1,.6-.2,1.42,1.42,0,0,1,.6.2,1,1,0,0,1,0,1.4.73.73,0,0,1-.6.2,1.07,1.07,0,0,1-.6-.2A1.45,1.45,0,0,1,204.7,56Zm1.6,12.2h-1.5V58.6h1.5Z" transform="translate(0 0)" style="fill:#1a1a1a"/><path d="M222.9,61.8a5.87,5.87,0,0,1-.4,2.3,3.81,3.81,0,0,1-1.1,1.6,2.45,2.45,0,0,1-1.6.6,2.11,2.11,0,0,1-1.3-.5,1.43,1.43,0,0,1-.6-1.2h-.1a2.94,2.94,0,0,1-1,1.2,2.73,2.73,0,0,1-1.6.4,2.58,2.58,0,0,1-2.1-.9,3.61,3.61,0,0,1-.7-2.4,4,4,0,0,1,1-2.9,3.69,3.69,0,0,1,2.7-1.1,7.6,7.6,0,0,1,1.4.1c.6.1,1,.2,1.4.3l-.2,4.1v.2c0,1,.4,1.6,1.2,1.6a1.48,1.48,0,0,0,1.3-.9,5.51,5.51,0,0,0,.5-2.5A5.07,5.07,0,0,0,221,59a4.14,4.14,0,0,0-1.9-1.8,6.09,6.09,0,0,0-2.8-.6,7.42,7.42,0,0,0-3.4.8,4.91,4.91,0,0,0-2.2,2.3,7.84,7.84,0,0,0-.8,3.5,4.92,4.92,0,0,0,5.5,5.5,10.8,10.8,0,0,0,3.8-.8v1.2a9.2,9.2,0,0,1-3.8.7,6.81,6.81,0,0,1-5-1.8,6.57,6.57,0,0,1-1.8-4.9,9.15,9.15,0,0,1,.9-4.1,6.62,6.62,0,0,1,2.7-2.8,7.67,7.67,0,0,1,4-1,7.42,7.42,0,0,1,3.4.8,5.66,5.66,0,0,1,2.3,2.3A5.51,5.51,0,0,1,222.9,61.8ZM213.8,63c0,1.5.6,2.2,1.7,2.2s1.9-.9,2-2.8l.1-2.3a5.9,5.9,0,0,0-1.4-.2,2.2,2.2,0,0,0-1.8.8A4.84,4.84,0,0,0,213.8,63Z" transform="translate(0 0)" style="fill:#1a1a1a"/><path d="M231.5,68.2l-.3-1.4h-.1a4.71,4.71,0,0,1-1.4,1.2,4.84,4.84,0,0,1-1.8.3,2.92,2.92,0,0,1-2.2-.7,2.86,2.86,0,0,1-.8-2.1c0-1.9,1.6-3,4.7-3.1l1.6-.1v-.6a2.65,2.65,0,0,0-.5-1.7c-.3-.4-.8-.5-1.6-.5a6,6,0,0,0-2.7.7l-.4-1.1a4.42,4.42,0,0,1,1.6-.6,9.85,9.85,0,0,1,1.7-.2,4,4,0,0,1,2.6.8,3,3,0,0,1,.8,2.5v6.6Zm-3.3-1a2.82,2.82,0,0,0,2.1-.7,2.86,2.86,0,0,0,.8-2.1v-.9l-1.5.1a4.94,4.94,0,0,0-2.5.5,1.76,1.76,0,0,0-.3,2.7A2,2,0,0,0,228.2,67.2Z" transform="translate(0 0)" style="fill:#1a1a1a"/><path d="M241.8,65.6a2.39,2.39,0,0,1-1,2.1,4.65,4.65,0,0,1-2.8.7,6.12,6.12,0,0,1-3-.6V66.4l1.5.6a3.89,3.89,0,0,0,1.5.2,3.21,3.21,0,0,0,1.8-.4,1.08,1.08,0,0,0,.6-1.1,1.39,1.39,0,0,0-.5-1,5.57,5.57,0,0,0-1.9-.9,6.75,6.75,0,0,1-1.9-.9,1.55,1.55,0,0,1-.8-.8A2,2,0,0,1,235,61a2.17,2.17,0,0,1,1-1.9,4.21,4.21,0,0,1,2.6-.7,7.65,7.65,0,0,1,3,.6l-.5,1.2a6.9,6.9,0,0,0-2.6-.6,3.51,3.51,0,0,0-1.6.3.87.87,0,0,0-.5.9,1.45,1.45,0,0,0,.2.7,1,1,0,0,0,.6.5c.3.1.9.4,1.7.7a5.34,5.34,0,0,1,2.3,1.3A2.27,2.27,0,0,1,241.8,65.6Z" transform="translate(0 0)" style="fill:#1a1a1a"/><path d="M250.1,68.2l-.3-1.4h-.1a4.71,4.71,0,0,1-1.4,1.2,4.84,4.84,0,0,1-1.8.3,2.92,2.92,0,0,1-2.2-.7,2.86,2.86,0,0,1-.8-2.1c0-1.9,1.6-3,4.7-3.1l1.6-.1v-.6a2.65,2.65,0,0,0-.5-1.7c-.3-.4-.8-.5-1.6-.5a6,6,0,0,0-2.7.7l-.4-1.1a4.42,4.42,0,0,1,1.6-.6,9.85,9.85,0,0,1,1.7-.2,4,4,0,0,1,2.6.8,3,3,0,0,1,.8,2.5v6.6Zm-3.3-1a2.82,2.82,0,0,0,2.1-.7,2.86,2.86,0,0,0,.8-2.1v-.9l-1.5.1a4.94,4.94,0,0,0-2.5.5,1.76,1.76,0,0,0-.3,2.7A2,2,0,0,0,246.8,67.2Z" transform="translate(0 0)" style="fill:#1a1a1a"/><path d="M260.7,66.9h0a3.75,3.75,0,0,1-3.1,1.5,3.35,3.35,0,0,1-2.9-1.3,5.82,5.82,0,0,1-1-3.7,5.82,5.82,0,0,1,1.1-3.7,3.47,3.47,0,0,1,2.9-1.3,3.61,3.61,0,0,1,3,1.4h.1l-.1-.7V54.5h1.5V68.2H261Zm-2.9.3a3,3,0,0,0,2.2-.8,4.26,4.26,0,0,0,.7-2.6v-.3a4.42,4.42,0,0,0-.7-2.9,2.66,2.66,0,0,0-2.2-.9,2.22,2.22,0,0,0-2,1,4.65,4.65,0,0,0-.7,2.8,4.46,4.46,0,0,0,.7,2.8A2.38,2.38,0,0,0,257.8,67.2Z" transform="translate(0 0)" style="fill:#1a1a1a"/><path d="M267.3,68.2l-3.7-9.6h1.6l2.1,5.7a19.47,19.47,0,0,1,.8,2.6h.1c.1-.3.3-1,.6-1.9s1.1-3.1,2.3-6.4h1.6L269,68.2Z" transform="translate(0 0)" style="fill:#1a1a1a"/><path d="M282.5,63.4a5.31,5.31,0,0,1-1.2,3.7,4.16,4.16,0,0,1-3.3,1.3,4.38,4.38,0,0,1-2.3-.6,3.53,3.53,0,0,1-1.5-1.7,6.84,6.84,0,0,1-.5-2.7,5.31,5.31,0,0,1,1.2-3.7,4.16,4.16,0,0,1,3.3-1.3,4.08,4.08,0,0,1,3.2,1.3A5.45,5.45,0,0,1,282.5,63.4Zm-7.3,0a4.46,4.46,0,0,0,.7,2.8,2.72,2.72,0,0,0,2.2,1,2.46,2.46,0,0,0,2.2-1,4.46,4.46,0,0,0,.7-2.8,4.46,4.46,0,0,0-.7-2.8,2.72,2.72,0,0,0-2.2-1,2.66,2.66,0,0,0-2.2.9A4.6,4.6,0,0,0,275.2,63.4Z" transform="translate(0 0)" style="fill:#1a1a1a"/><path d="M292.9,58.6v.9l-1.8.2a2,2,0,0,1,.4.8,3.59,3.59,0,0,1,.2,1.1,2.9,2.9,0,0,1-1,2.3,3.8,3.8,0,0,1-2.7.8,2,2,0,0,1-.8-.1,1.35,1.35,0,0,0-.9,1.2.6.6,0,0,0,.3.6,2.68,2.68,0,0,0,1.1.2h1.7a3.61,3.61,0,0,1,2.4.7,2.13,2.13,0,0,1,.8,1.9,2.51,2.51,0,0,1-1.3,2.4,7.53,7.53,0,0,1-3.7.8,4.79,4.79,0,0,1-2.9-.7,2.22,2.22,0,0,1-1-2,2,2,0,0,1,.6-1.5,3.54,3.54,0,0,1,1.6-.9,1.47,1.47,0,0,1-.6-.5,1.14,1.14,0,0,1-.3-.8,1.22,1.22,0,0,1,.3-.9,8.18,8.18,0,0,1,.9-.8,2.94,2.94,0,0,1-1.2-1,3.1,3.1,0,0,1-.5-1.7,3,3,0,0,1,.9-2.4,3.67,3.67,0,0,1,2.7-.9,5.9,5.9,0,0,1,1.4.2h3.4Zm-7.6,11.2A1.31,1.31,0,0,0,286,71a3.58,3.58,0,0,0,1.9.4,6.16,6.16,0,0,0,2.7-.5,1.76,1.76,0,0,0,.9-1.5,1.29,1.29,0,0,0-.5-1.1,3.61,3.61,0,0,0-1.8-.3h-1.7a2.07,2.07,0,0,0-1.5.5A1.86,1.86,0,0,0,285.3,69.8Zm.8-8.1a1.75,1.75,0,0,0,.6,1.5,2.54,2.54,0,0,0,1.6.5,1.86,1.86,0,0,0,2.1-2.1,2,2,0,0,0-2.2-2.2,2.11,2.11,0,0,0-1.6.6A2.18,2.18,0,0,0,286.1,61.7Z" transform="translate(0 0)" style="fill:#1a1a1a"/><path d="M300.9,68.2l-.3-1.4h-.1a4.71,4.71,0,0,1-1.4,1.2,4.84,4.84,0,0,1-1.8.3,2.92,2.92,0,0,1-2.2-.7,2.86,2.86,0,0,1-.8-2.1c0-1.9,1.6-3,4.7-3.1l1.6-.1v-.6a2.65,2.65,0,0,0-.5-1.7c-.3-.4-.8-.5-1.6-.5a6,6,0,0,0-2.7.7l-.4-1.1a4.42,4.42,0,0,1,1.6-.6,9.85,9.85,0,0,1,1.7-.2,4,4,0,0,1,2.6.8,3,3,0,0,1,.8,2.5v6.6Zm-3.3-1a2.82,2.82,0,0,0,2.1-.7,2.86,2.86,0,0,0,.8-2.1v-.9l-1.5.1a4.94,4.94,0,0,0-2.5.5,1.76,1.76,0,0,0-.3,2.7A2,2,0,0,0,297.6,67.2Z" transform="translate(0 0)" style="fill:#1a1a1a"/><path d="M311.5,66.9h0a3.75,3.75,0,0,1-3.1,1.5,3.35,3.35,0,0,1-2.9-1.3,5.82,5.82,0,0,1-1-3.7,5.82,5.82,0,0,1,1.1-3.7,3.47,3.47,0,0,1,2.9-1.3,3.61,3.61,0,0,1,3,1.4h.1l-.1-.7V54.5H313V68.2h-1.2Zm-2.9.3a3,3,0,0,0,2.2-.8,4.26,4.26,0,0,0,.7-2.6v-.3a4.42,4.42,0,0,0-.7-2.9,2.66,2.66,0,0,0-2.2-.9,2.22,2.22,0,0,0-2,1,4.65,4.65,0,0,0-.7,2.8,4.46,4.46,0,0,0,.7,2.8A2.38,2.38,0,0,0,308.6,67.2Z" transform="translate(0 0)" style="fill:#1a1a1a"/><path d="M324.3,63.4a5.31,5.31,0,0,1-1.2,3.7,4.16,4.16,0,0,1-3.3,1.3,4.38,4.38,0,0,1-2.3-.6,3.53,3.53,0,0,1-1.5-1.7,6.84,6.84,0,0,1-.5-2.7,5.31,5.31,0,0,1,1.2-3.7,4.16,4.16,0,0,1,3.3-1.3,4.08,4.08,0,0,1,3.2,1.3A5.45,5.45,0,0,1,324.3,63.4Zm-7.4,0a4.46,4.46,0,0,0,.7,2.8,2.72,2.72,0,0,0,2.2,1,2.46,2.46,0,0,0,2.2-1,4.46,4.46,0,0,0,.7-2.8,4.46,4.46,0,0,0-.7-2.8,2.72,2.72,0,0,0-2.2-1,2.66,2.66,0,0,0-2.2.9A4.6,4.6,0,0,0,316.9,63.4Z" transform="translate(0 0)" style="fill:#1a1a1a"/><path d="M333.1,65.6a2.39,2.39,0,0,1-1,2.1,4.65,4.65,0,0,1-2.8.7,6.12,6.12,0,0,1-3-.6V66.4l1.5.6a3.89,3.89,0,0,0,1.5.2,3.21,3.21,0,0,0,1.8-.4,1.08,1.08,0,0,0,.6-1.1,1.39,1.39,0,0,0-.5-1,5.57,5.57,0,0,0-1.9-.9,6.75,6.75,0,0,1-1.9-.9,1.55,1.55,0,0,1-.8-.8,2,2,0,0,1-.3-1.1,2.17,2.17,0,0,1,1-1.9,4.21,4.21,0,0,1,2.6-.7,7.65,7.65,0,0,1,3,.6l-.5,1.2a6.9,6.9,0,0,0-2.6-.6,3.51,3.51,0,0,0-1.6.3.87.87,0,0,0-.5.9,1.45,1.45,0,0,0,.2.7,1,1,0,0,0,.6.5c.3.1.9.4,1.7.7a5.34,5.34,0,0,1,2.3,1.3A2.27,2.27,0,0,1,333.1,65.6Z" transform="translate(0 0)" style="fill:#1a1a1a"/><path d="M335.2,67.3a1.22,1.22,0,0,1,.3-.9,1,1,0,0,1,.8-.3,1.14,1.14,0,0,1,.8.3,1.5,1.5,0,0,1,0,1.8,1.14,1.14,0,0,1-.8.3.91.91,0,0,1-.7-.3A1,1,0,0,1,335.2,67.3Z" transform="translate(0 0)" style="fill:#1a1a1a"/><path d="M344.1,68.4a3.82,3.82,0,0,1-3.2-1.3,5.18,5.18,0,0,1-1.1-3.6,5.15,5.15,0,0,1,1.2-3.7,4.16,4.16,0,0,1,3.3-1.3,6.6,6.6,0,0,1,1.4.1,2.82,2.82,0,0,1,1.1.4l-.4,1.2c-.3-.1-.7-.2-1.1-.3a3.75,3.75,0,0,0-1-.1c-2,0-2.9,1.2-2.9,3.7a4.15,4.15,0,0,0,.7,2.7,2.58,2.58,0,0,0,2.1.9,7.93,7.93,0,0,0,2.5-.5v1.3A7.51,7.51,0,0,1,344.1,68.4Z" transform="translate(0 0)" style="fill:#1a1a1a"/><path d="M357.1,63.4a5.31,5.31,0,0,1-1.2,3.7,4.16,4.16,0,0,1-3.3,1.3,4.38,4.38,0,0,1-2.3-.6,3.53,3.53,0,0,1-1.5-1.7,6.84,6.84,0,0,1-.5-2.7,5.31,5.31,0,0,1,1.2-3.7,4.16,4.16,0,0,1,3.3-1.3,4.08,4.08,0,0,1,3.2,1.3A5.45,5.45,0,0,1,357.1,63.4Zm-7.3,0a4.46,4.46,0,0,0,.7,2.8,2.72,2.72,0,0,0,2.2,1,2.46,2.46,0,0,0,2.2-1,4.46,4.46,0,0,0,.7-2.8,4.46,4.46,0,0,0-.7-2.8,2.72,2.72,0,0,0-2.2-1,2.66,2.66,0,0,0-2.2.9A4.6,4.6,0,0,0,349.8,63.4Z" transform="translate(0 0)" style="fill:#1a1a1a"/><path d="M371.9,68.2V61.9a2.65,2.65,0,0,0-.5-1.7,1.75,1.75,0,0,0-1.5-.6,2.48,2.48,0,0,0-2,.8,3.81,3.81,0,0,0-.7,2.4v5.4h-1.5V61.9a2.65,2.65,0,0,0-.5-1.7,1.75,1.75,0,0,0-1.5-.6,2.48,2.48,0,0,0-2,.8,4.47,4.47,0,0,0-.6,2.7v5.1h-1.5V58.6h1.2l.2,1.3h.1a3.18,3.18,0,0,1,1.2-1.1,3.29,3.29,0,0,1,1.7-.4,2.93,2.93,0,0,1,3,1.6h.1a3.45,3.45,0,0,1,1.2-1.2,3.81,3.81,0,0,1,1.9-.4,3.29,3.29,0,0,1,2.4.8,4,4,0,0,1,.8,2.7v6.3Z" transform="translate(0 0)" style="fill:#1a1a1a"/><path d="M376.2,67.3a1.22,1.22,0,0,1,.3-.9,1,1,0,0,1,.8-.3,1.14,1.14,0,0,1,.8.3,1.5,1.5,0,0,1,0,1.8,1.14,1.14,0,0,1-.8.3.91.91,0,0,1-.7-.3A1,1,0,0,1,376.2,67.3Z" transform="translate(0 0)" style="fill:#1a1a1a"/><path d="M385.7,58.4a3.35,3.35,0,0,1,2.9,1.3,5.82,5.82,0,0,1,1,3.7,5.82,5.82,0,0,1-1.1,3.7,3.47,3.47,0,0,1-2.9,1.3,4.67,4.67,0,0,1-1.7-.3,2.76,2.76,0,0,1-1.3-1.1h-.1l-.3,1.2h-1V54.5h1.5v3.3a12.75,12.75,0,0,1-.1,2h.1A3.37,3.37,0,0,1,385.7,58.4Zm-.2,1.2a2.66,2.66,0,0,0-2.2.9,5.11,5.11,0,0,0-.7,2.9,4.42,4.42,0,0,0,.7,2.9,2.66,2.66,0,0,0,2.2.9,2.12,2.12,0,0,0,2-1,5.49,5.49,0,0,0,.7-2.8,4.28,4.28,0,0,0-.7-2.8A2.46,2.46,0,0,0,385.5,59.6Z" transform="translate(0 0)" style="fill:#1a1a1a"/><path d="M396.6,58.4a4.87,4.87,0,0,1,1.2.1l-.2,1.4a4.48,4.48,0,0,0-1.1-.1,2.66,2.66,0,0,0-2,.9,3.19,3.19,0,0,0-.8,2.4v5.2h-1.5V58.7h1.2l.2,1.8h.1A6.39,6.39,0,0,1,395,59,2.45,2.45,0,0,1,396.6,58.4Z" transform="translate(0 0)" style="fill:#1a1a1a"/><rect width="670" height="40" style="fill:#1c55ff"/><line y1="79.5" x2="670" y2="79.5" style="fill:none;stroke:#d6d6d6;stroke-miterlimit:10"/><line x1="670" y1="119.5" y2="119.5" style="fill:none;stroke:#d6d6d6;stroke-miterlimit:10"/><rect x="25.1" y="515.4" width="130" height="40" style="fill:#1c55ff"/><path d="M26.8,27.4H25.1l-7-10.8H18c.1,1.3.1,2.4.1,3.5v7.3H16.7V14.6h1.7l7,10.7h.1a11.45,11.45,0,0,0-.1-1.5,10.15,10.15,0,0,1,0-1.8V14.6h1.4Z" transform="translate(0 0)" style="fill:#fff"/><path d="M38.4,22.6a5.31,5.31,0,0,1-1.2,3.7,4.16,4.16,0,0,1-3.3,1.3,4.38,4.38,0,0,1-2.3-.6,3.53,3.53,0,0,1-1.5-1.7,6.84,6.84,0,0,1-.5-2.7,5.31,5.31,0,0,1,1.2-3.7,4.16,4.16,0,0,1,3.3-1.3,4.08,4.08,0,0,1,3.2,1.3A5.45,5.45,0,0,1,38.4,22.6Zm-7.3,0a4.46,4.46,0,0,0,.7,2.8,2.72,2.72,0,0,0,2.2,1,2.46,2.46,0,0,0,2.2-1,4.46,4.46,0,0,0,.7-2.8,4.46,4.46,0,0,0-.7-2.8,2.72,2.72,0,0,0-2.2-1,2.66,2.66,0,0,0-2.2.9A4.79,4.79,0,0,0,31.1,22.6Z" transform="translate(0 0)" style="fill:#fff"/><path d="M43.1,27.4l-3.7-9.6H41l2.1,5.7a19.47,19.47,0,0,1,.8,2.6H44c.1-.3.3-1,.6-1.9s1.1-3.1,2.3-6.4h1.6l-3.7,9.6Z" transform="translate(0 0)" style="fill:#fff"/><path d="M55.9,27.4,55.6,26h-.1a4.71,4.71,0,0,1-1.4,1.2,4.84,4.84,0,0,1-1.8.3,2.92,2.92,0,0,1-2.2-.7,2.86,2.86,0,0,1-.8-2.1c0-1.9,1.6-3,4.7-3.1l1.6-.1v-.6a2.65,2.65,0,0,0-.5-1.7c-.3-.4-.8-.5-1.6-.5a6,6,0,0,0-2.7.7l-.4-1.1a4.42,4.42,0,0,1,1.6-.6,9.85,9.85,0,0,1,1.7-.2,4,4,0,0,1,2.6.8,3,3,0,0,1,.8,2.5v6.6Zm-3.3-1a2.82,2.82,0,0,0,2.1-.7,2.86,2.86,0,0,0,.8-2.1v-.9l-1.5.1a4.94,4.94,0,0,0-2.5.5,1.76,1.76,0,0,0-.3,2.7A2.3,2.3,0,0,0,52.6,26.4Z" transform="translate(0 0)" style="fill:#fff"/><path d="M77,27.4V21.1a2.65,2.65,0,0,0-.5-1.7,1.75,1.75,0,0,0-1.5-.6,2.48,2.48,0,0,0-2,.8,3.81,3.81,0,0,0-.7,2.4v5.4H70.8V21.1a2.65,2.65,0,0,0-.5-1.7,1.75,1.75,0,0,0-1.5-.6,2.48,2.48,0,0,0-2,.8,4.47,4.47,0,0,0-.6,2.7v5.1H64.7V17.8h1.2l.2,1.3h.1A3.18,3.18,0,0,1,67.4,18a3.29,3.29,0,0,1,1.7-.4,2.93,2.93,0,0,1,3,1.6h.1A3.45,3.45,0,0,1,73.4,18a3.81,3.81,0,0,1,1.9-.4,3.29,3.29,0,0,1,2.4.8,4,4,0,0,1,.8,2.7v6.3Z" transform="translate(0 0)" style="fill:#fff"/><path d="M85.5,27.6a4.52,4.52,0,0,1-3.4-1.3,5.22,5.22,0,0,1-1.2-3.6A5.82,5.82,0,0,1,82,19a4,4,0,0,1,3.1-1.4A3.7,3.7,0,0,1,88,18.8,4.72,4.72,0,0,1,89,22v.9H82.4a3.57,3.57,0,0,0,.9,2.6,3,3,0,0,0,2.3.9,7,7,0,0,0,3.1-.7V27a8.8,8.8,0,0,1-1.5.5A8.62,8.62,0,0,1,85.5,27.6Zm-.4-8.8a2.2,2.2,0,0,0-1.8.8,3.34,3.34,0,0,0-.8,2.1h5a3.28,3.28,0,0,0-.6-2.1A2.2,2.2,0,0,0,85.1,18.8Z" transform="translate(0 0)" style="fill:#fff"/><path d="M98.1,27.4V21.2a3,3,0,0,0-.5-1.8,2.06,2.06,0,0,0-1.7-.6,3,3,0,0,0-2.2.8,4.11,4.11,0,0,0-.7,2.8v5.1H91.5V17.9h1.2l.2,1.3H93a2.85,2.85,0,0,1,1.3-1.1,3.42,3.42,0,0,1,1.8-.4,3.84,3.84,0,0,1,2.6.8,3.51,3.51,0,0,1,.9,2.7v6.3H98.1Z" transform="translate(0 0)" style="fill:#fff"/><path d="M108.8,24.8a2.39,2.39,0,0,1-1,2.1,4.65,4.65,0,0,1-2.8.7,6.12,6.12,0,0,1-3-.6V25.6l1.5.6a3.89,3.89,0,0,0,1.5.2,3.21,3.21,0,0,0,1.8-.4,1.08,1.08,0,0,0,.6-1.1,1.39,1.39,0,0,0-.5-1A5.57,5.57,0,0,0,105,23a6.75,6.75,0,0,1-1.9-.9,1.55,1.55,0,0,1-.8-.8,2,2,0,0,1-.3-1.1,2.17,2.17,0,0,1,1-1.9,4.21,4.21,0,0,1,2.6-.7,7.65,7.65,0,0,1,3,.6l-.5,1.2a6.9,6.9,0,0,0-2.6-.6,3.51,3.51,0,0,0-1.6.3.87.87,0,0,0-.5.9,1.45,1.45,0,0,0,.2.7,1,1,0,0,0,.6.5c.3.1.9.4,1.7.7a5.34,5.34,0,0,1,2.3,1.3A2.45,2.45,0,0,1,108.8,24.8Z" transform="translate(0 0)" style="fill:#fff"/><path d="M117.1,27.4l-.3-1.4h-.1a4.71,4.71,0,0,1-1.4,1.2,4.84,4.84,0,0,1-1.8.3,2.92,2.92,0,0,1-2.2-.7,2.86,2.86,0,0,1-.8-2.1c0-1.9,1.6-3,4.7-3.1l1.6-.1v-.6a2.65,2.65,0,0,0-.5-1.7c-.3-.4-.8-.5-1.6-.5a6,6,0,0,0-2.7.7l-.4-1.1a4.42,4.42,0,0,1,1.6-.6,9.85,9.85,0,0,1,1.7-.2,4,4,0,0,1,2.6.8,3,3,0,0,1,.8,2.5v6.6Zm-3.3-1a2.82,2.82,0,0,0,2.1-.7,2.86,2.86,0,0,0,.8-2.1v-.9l-1.5.1a4.94,4.94,0,0,0-2.5.5,1.76,1.76,0,0,0-.3,2.7A2,2,0,0,0,113.8,26.4Z" transform="translate(0 0)" style="fill:#fff"/><path d="M129.1,17.8v.9l-1.8.2a2,2,0,0,1,.4.8,3.59,3.59,0,0,1,.2,1.1,2.9,2.9,0,0,1-1,2.3,3.8,3.8,0,0,1-2.7.8,2,2,0,0,1-.8-.1,1.35,1.35,0,0,0-.9,1.2.6.6,0,0,0,.3.6,2.68,2.68,0,0,0,1.1.2h1.7a3.61,3.61,0,0,1,2.4.7,2.13,2.13,0,0,1,.8,1.9,2.51,2.51,0,0,1-1.3,2.4,7.53,7.53,0,0,1-3.7.8,4.79,4.79,0,0,1-2.9-.7,2.22,2.22,0,0,1-1-2,2,2,0,0,1,.6-1.5,3.54,3.54,0,0,1,1.6-.9,1.47,1.47,0,0,1-.6-.5,1.14,1.14,0,0,1-.3-.8,1.22,1.22,0,0,1,.3-.9,8.18,8.18,0,0,1,.9-.8,2.94,2.94,0,0,1-1.2-1,3.1,3.1,0,0,1-.5-1.7,3,3,0,0,1,.9-2.4,3.67,3.67,0,0,1,2.7-.9,5.9,5.9,0,0,1,1.4.2h3.4Zm-7.7,11.3a1.31,1.31,0,0,0,.7,1.2,3.58,3.58,0,0,0,1.9.4,6.16,6.16,0,0,0,2.7-.5,1.76,1.76,0,0,0,.9-1.5,1.29,1.29,0,0,0-.5-1.1,3.61,3.61,0,0,0-1.8-.3h-1.7a2.07,2.07,0,0,0-1.5.5A1.86,1.86,0,0,0,121.4,29.1Zm.8-8.2a1.75,1.75,0,0,0,.6,1.5,2.54,2.54,0,0,0,1.6.5,1.86,1.86,0,0,0,2.1-2.1,2,2,0,0,0-2.2-2.2,2.11,2.11,0,0,0-1.6.6A2.31,2.31,0,0,0,122.2,20.9Z" transform="translate(0 0)" style="fill:#fff"/><path d="M135.1,27.6a4.52,4.52,0,0,1-3.4-1.3,5.22,5.22,0,0,1-1.2-3.6,5.82,5.82,0,0,1,1.1-3.7,4,4,0,0,1,3.1-1.4,3.7,3.7,0,0,1,2.9,1.2,4.5,4.5,0,0,1,1.1,3.1v.9H132a3.57,3.57,0,0,0,.9,2.6,3,3,0,0,0,2.3.9,7,7,0,0,0,3.1-.7V27a8.8,8.8,0,0,1-1.5.5A8.62,8.62,0,0,1,135.1,27.6Zm-.4-8.8a2.2,2.2,0,0,0-1.8.8,3.34,3.34,0,0,0-.8,2.1h5a3.28,3.28,0,0,0-.6-2.1A2.2,2.2,0,0,0,134.7,18.8Z" transform="translate(0 0)" style="fill:#fff"/><path d="M153.4,27.4V21.1a2.65,2.65,0,0,0-.5-1.7,1.75,1.75,0,0,0-1.5-.6,2.48,2.48,0,0,0-2,.8,3.81,3.81,0,0,0-.7,2.4v5.4h-1.5V21.1a2.65,2.65,0,0,0-.5-1.7,1.75,1.75,0,0,0-1.5-.6,2.48,2.48,0,0,0-2,.8,4.47,4.47,0,0,0-.6,2.7v5.1h-1.5V17.8h1.2l.2,1.3h.1a3.18,3.18,0,0,1,1.2-1.1,3.29,3.29,0,0,1,1.7-.4,2.93,2.93,0,0,1,3,1.6h.1a3.45,3.45,0,0,1,1.2-1.2,3.81,3.81,0,0,1,1.9-.4,3.29,3.29,0,0,1,2.4.8,4,4,0,0,1,.8,2.7v6.3Z" transform="translate(0 0)" style="fill:#fff"/><path d="M31.5,106.7l-.9-3.1H25.9l-.9,3.1H22l4.5-12.9h3.3l4.6,12.9Zm-1.6-5.3c-.9-2.8-1.3-4.3-1.5-4.7a1.83,1.83,0,0,1-.2-.9c-.2.8-.7,2.6-1.7,5.6Z" transform="translate(0 0)" style="fill:#1c55ff"/><path d="M42.7,103.8a2.71,2.71,0,0,1-1.1,2.3,5.22,5.22,0,0,1-3.1.8,9.72,9.72,0,0,1-1.8-.1,5.73,5.73,0,0,1-1.4-.4v-2.2c.5.2,1.1.4,1.7.6a5,5,0,0,0,1.6.2c1,0,1.5-.3,1.5-.8a.76.76,0,0,0-.2-.5,2.15,2.15,0,0,0-.7-.4,5.35,5.35,0,0,0-1.3-.6,6.5,6.5,0,0,1-1.7-.9,3.24,3.24,0,0,1-.8-.9,2.55,2.55,0,0,1-.2-1.3,2.22,2.22,0,0,1,1-2,4.79,4.79,0,0,1,2.9-.7,8.9,8.9,0,0,1,3.5.8l-.8,1.9a12.13,12.13,0,0,0-1.4-.5,5.85,5.85,0,0,0-1.3-.2q-1.2,0-1.2.6a.72.72,0,0,0,.4.6,14.81,14.81,0,0,0,1.7.8,6.5,6.5,0,0,1,1.7.9,3.24,3.24,0,0,1,.8.9A1.82,1.82,0,0,1,42.7,103.8Z" transform="translate(0 0)" style="fill:#1c55ff"/><path d="M51.6,103.8a2.71,2.71,0,0,1-1.1,2.3,5.22,5.22,0,0,1-3.1.8,9.72,9.72,0,0,1-1.8-.1,5.73,5.73,0,0,1-1.4-.4v-2.2c.5.2,1.1.4,1.7.6a5,5,0,0,0,1.6.2c1,0,1.5-.3,1.5-.8a.76.76,0,0,0-.2-.5,2.15,2.15,0,0,0-.7-.4,5.35,5.35,0,0,0-1.3-.6,6.5,6.5,0,0,1-1.7-.9,3.24,3.24,0,0,1-.8-.9,2.55,2.55,0,0,1-.2-1.3,2.22,2.22,0,0,1,1-2,4.79,4.79,0,0,1,2.9-.7,8.9,8.9,0,0,1,3.5.8l-.8,1.9a12.13,12.13,0,0,0-1.4-.5,5.85,5.85,0,0,0-1.3-.2q-1.2,0-1.2.6a.72.72,0,0,0,.4.6,14.81,14.81,0,0,0,1.7.8,6.5,6.5,0,0,1,1.7.9,3.24,3.24,0,0,1,.8.9A1.82,1.82,0,0,1,51.6,103.8Z" transform="translate(0 0)" style="fill:#1c55ff"/><path d="M60.7,106.7l-.4-1.3h-.1a3.18,3.18,0,0,1-1.2,1.1,4.78,4.78,0,0,1-1.8.4,3.42,3.42,0,0,1-2.6-.9,3.67,3.67,0,0,1-.9-2.7V96.9h2.7v5.7a2.54,2.54,0,0,0,.4,1.6,1.35,1.35,0,0,0,1.2.5,1.7,1.7,0,0,0,1.6-.8,4.94,4.94,0,0,0,.5-2.5V96.8h2.7v9.8H60.7Z" transform="translate(0 0)" style="fill:#1c55ff"/><path d="M74.6,106.7H71.9V101a2.54,2.54,0,0,0-.4-1.6,1.35,1.35,0,0,0-1.2-.5,1.7,1.7,0,0,0-1.6.8,4.94,4.94,0,0,0-.5,2.5v4.6H65.5V97h2l.4,1.3H68a3.18,3.18,0,0,1,1.2-1.1,4.78,4.78,0,0,1,1.8-.4,3.57,3.57,0,0,1,2.6.9,3.67,3.67,0,0,1,.9,2.7v6.3Z" transform="translate(0 0)" style="fill:#1c55ff"/><path d="M81.5,104.8a6.09,6.09,0,0,0,1.7-.3v2a6.25,6.25,0,0,1-2.5.4,2.89,2.89,0,0,1-2.3-.8,4,4,0,0,1-.7-2.4V99H76.4V97.9l1.5-.9.8-2.1h1.7V97h2.8v2H80.4v4.7c0,.4.1.7.3.8A1.91,1.91,0,0,0,81.5,104.8Z" transform="translate(0 0)" style="fill:#1c55ff"/><path d="M94.1,101.8a5.17,5.17,0,0,1-1.3,3.8,4.67,4.67,0,0,1-3.5,1.4,5.14,5.14,0,0,1-2.5-.6,4.24,4.24,0,0,1-1.7-1.8,6,6,0,0,1-.6-2.7,4.78,4.78,0,0,1,1.3-3.7,5,5,0,0,1,3.5-1.3,5.14,5.14,0,0,1,2.5.6,4.24,4.24,0,0,1,1.7,1.8A5.14,5.14,0,0,1,94.1,101.8Zm-6.8,0a4.2,4.2,0,0,0,.5,2.2,1.65,1.65,0,0,0,1.6.7,1.58,1.58,0,0,0,1.5-.7,5.09,5.09,0,0,0,0-4.4,1.65,1.65,0,0,0-1.6-.7,1.58,1.58,0,0,0-1.5.7A4.2,4.2,0,0,0,87.3,101.8Z" transform="translate(0 0)" style="fill:#1c55ff"/><path d="M102.9,101.4v5.3h-1.5V93.9h3.5a5.64,5.64,0,0,1,3.5.9,3.1,3.1,0,0,1,1.1,2.7,3.4,3.4,0,0,1-2.6,3.4l3.5,5.8h-1.8l-3.1-5.3Zm0-1.3h2a3.52,3.52,0,0,0,2.3-.6,2.23,2.23,0,0,0,.7-1.9,2.07,2.07,0,0,0-.8-1.8,4.65,4.65,0,0,0-2.4-.6h-1.9v4.9Z" transform="translate(0 0)" style="fill:#1a1a1a"/><path d="M116.4,106.9a4.52,4.52,0,0,1-3.4-1.3,4.78,4.78,0,0,1-1.2-3.6,5.82,5.82,0,0,1,1.1-3.7,3.81,3.81,0,0,1,3.1-1.4,3.7,3.7,0,0,1,2.9,1.2,4.5,4.5,0,0,1,1.1,3.1v.9h-6.6a3.57,3.57,0,0,0,.9,2.6,3,3,0,0,0,2.3.9,7,7,0,0,0,3.1-.7v1.3a8.8,8.8,0,0,1-1.5.5A11,11,0,0,1,116.4,106.9Zm-.4-8.8a2.56,2.56,0,0,0-1.9.8,3.34,3.34,0,0,0-.8,2.1h5a3.28,3.28,0,0,0-.6-2.1A2.14,2.14,0,0,0,116,98.1Z" transform="translate(0 0)" style="fill:#1a1a1a"/><path d="M122.2,98c0-.8.3-1.2,1-1.2s1.1.4,1.1,1.2a1.22,1.22,0,0,1-.3.9,1.14,1.14,0,0,1-.8.3.91.91,0,0,1-.7-.3A1.22,1.22,0,0,1,122.2,98Zm0,7.8a1.22,1.22,0,0,1,.3-.9,1,1,0,0,1,.8-.3,1.14,1.14,0,0,1,.8.3,1.5,1.5,0,0,1,0,1.8,1.14,1.14,0,0,1-.8.3.91.91,0,0,1-.7-.3A1,1,0,0,1,122.2,105.8Z" transform="translate(0 0)" style="fill:#1a1a1a"/><path d="M142.3,100.2a6.94,6.94,0,0,1-1.7,4.9,7,7,0,0,1-5,1.7H132V93.9h3.9a6.43,6.43,0,0,1,4.7,1.7A6.19,6.19,0,0,1,142.3,100.2Zm-1.6,0a5,5,0,0,0-1.3-3.8,4.92,4.92,0,0,0-3.7-1.3h-2.2v10.3h1.8a5.36,5.36,0,0,0,4-1.3A5.3,5.3,0,0,0,140.7,100.2Z" transform="translate(0 0)" style="fill:#1a1a1a"/><path d="M153.3,101.9a5.31,5.31,0,0,1-1.2,3.7,4.16,4.16,0,0,1-3.3,1.3,4.38,4.38,0,0,1-2.3-.6,3.53,3.53,0,0,1-1.5-1.7,6.84,6.84,0,0,1-.5-2.7,5.31,5.31,0,0,1,1.2-3.7,4.16,4.16,0,0,1,3.3-1.3,4.08,4.08,0,0,1,3.2,1.3A5.45,5.45,0,0,1,153.3,101.9Zm-7.4,0a4.46,4.46,0,0,0,.7,2.8,2.72,2.72,0,0,0,2.2,1,2.46,2.46,0,0,0,2.2-1,6,6,0,0,0,0-5.6,2.72,2.72,0,0,0-2.2-1,2.66,2.66,0,0,0-2.2.9A4.6,4.6,0,0,0,145.9,101.9Z" transform="translate(0 0)" style="fill:#1a1a1a"/><path d="M159.7,106.9a3.82,3.82,0,0,1-3.2-1.3,5.72,5.72,0,0,1-1.1-3.6,5.15,5.15,0,0,1,1.2-3.7,4.52,4.52,0,0,1,3.3-1.3,6.6,6.6,0,0,1,1.4.1,2.82,2.82,0,0,1,1.1.4l-.4,1.2c-.3-.1-.7-.2-1.1-.3a3.75,3.75,0,0,0-1-.1c-2,0-2.9,1.2-2.9,3.7a4.15,4.15,0,0,0,.7,2.7,2.58,2.58,0,0,0,2.1.9,7.93,7.93,0,0,0,2.5-.5v1.3A7.08,7.08,0,0,1,159.7,106.9Z" transform="translate(0 0)" style="fill:#1a1a1a"/><path d="M165.8,97.1v6.2a3,3,0,0,0,.5,1.8,2.06,2.06,0,0,0,1.7.6,3,3,0,0,0,2.2-.8,4,4,0,0,0,.7-2.7V97.1h1.5v9.6h-1.2l-.2-1.3h-.1a3.18,3.18,0,0,1-1.2,1.1,3.42,3.42,0,0,1-1.8.4,3.84,3.84,0,0,1-2.6-.8,3.37,3.37,0,0,1-.9-2.7V97.1Z" transform="translate(0 0)" style="fill:#1a1a1a"/><path d="M187.7,106.7v-6.3a2.65,2.65,0,0,0-.5-1.7,1.75,1.75,0,0,0-1.5-.6,2.48,2.48,0,0,0-2,.8,3.81,3.81,0,0,0-.7,2.4v5.4h-1.5v-6.3a2.65,2.65,0,0,0-.5-1.7,1.75,1.75,0,0,0-1.5-.6,2.48,2.48,0,0,0-2,.8,4.47,4.47,0,0,0-.6,2.7v5.1h-1.5V97.1h1.2l.2,1.3h.1a3.18,3.18,0,0,1,1.2-1.1,3.29,3.29,0,0,1,1.7-.4,2.93,2.93,0,0,1,3,1.6h.1a3.45,3.45,0,0,1,1.2-1.2,3.81,3.81,0,0,1,1.9-.4,3.29,3.29,0,0,1,2.4.8,4,4,0,0,1,.8,2.7v6.3Z" transform="translate(0 0)" style="fill:#1a1a1a"/><path d="M196.3,106.9a4.52,4.52,0,0,1-3.4-1.3,4.78,4.78,0,0,1-1.2-3.6,5.82,5.82,0,0,1,1.1-3.7,3.81,3.81,0,0,1,3.1-1.4,3.7,3.7,0,0,1,2.9,1.2,4.5,4.5,0,0,1,1.1,3.1v.9h-6.6a3.57,3.57,0,0,0,.9,2.6,3,3,0,0,0,2.3.9,7,7,0,0,0,3.1-.7v1.3a8.8,8.8,0,0,1-1.5.5A11,11,0,0,1,196.3,106.9Zm-.4-8.8a2.56,2.56,0,0,0-1.9.8,3.34,3.34,0,0,0-.8,2.1h5a3.28,3.28,0,0,0-.6-2.1A2.14,2.14,0,0,0,195.9,98.1Z" transform="translate(0 0)" style="fill:#1a1a1a"/><path d="M208.9,106.7v-6.2a3,3,0,0,0-.5-1.8,2.06,2.06,0,0,0-1.7-.6,3,3,0,0,0-2.2.8,3.81,3.81,0,0,0-.7,2.7v5.1h-1.5V97.1h1.2l.2,1.3h.1a2.85,2.85,0,0,1,1.3-1.1,3.42,3.42,0,0,1,1.8-.4,3.84,3.84,0,0,1,2.6.8,3.51,3.51,0,0,1,.9,2.7v6.3Z" transform="translate(0 0)" style="fill:#1a1a1a"/><path d="M216.5,105.7a1.48,1.48,0,0,0,.7-.1c.2,0,.4-.1.6-.1v1.1a6.37,6.37,0,0,1-.7.2c-.3,0-.6.1-.8.1-1.9,0-2.8-1-2.8-2.9V98.3h-1.4v-.7l1.4-.6.6-2.1h.8v2.2h2.8v1.1h-2.8v5.7a1.7,1.7,0,0,0,.4,1.3A1.66,1.66,0,0,0,216.5,105.7Z" transform="translate(0 0)" style="fill:#1a1a1a"/><path d="M228,101.9a5.31,5.31,0,0,1-1.2,3.7,4.16,4.16,0,0,1-3.3,1.3,4.38,4.38,0,0,1-2.3-.6,3.53,3.53,0,0,1-1.5-1.7,6.84,6.84,0,0,1-.5-2.7,5.31,5.31,0,0,1,1.2-3.7,4.16,4.16,0,0,1,3.3-1.3,4.08,4.08,0,0,1,3.2,1.3A5.45,5.45,0,0,1,228,101.9Zm-7.3,0a4.46,4.46,0,0,0,.7,2.8,2.72,2.72,0,0,0,2.2,1,2.46,2.46,0,0,0,2.2-1,6,6,0,0,0,0-5.6,2.72,2.72,0,0,0-2.2-1,2.66,2.66,0,0,0-2.2.9A4.6,4.6,0,0,0,220.7,101.9Z" transform="translate(0 0)" style="fill:#1a1a1a"/><path d="M236.8,104.1a2.39,2.39,0,0,1-1,2.1,4.65,4.65,0,0,1-2.8.7,6.12,6.12,0,0,1-3-.6v-1.4l1.5.6a3.89,3.89,0,0,0,1.5.2,3.21,3.21,0,0,0,1.8-.4,1.08,1.08,0,0,0,.6-1.1,1.39,1.39,0,0,0-.5-1,5.57,5.57,0,0,0-1.9-.9,6.75,6.75,0,0,1-1.9-.9,1.55,1.55,0,0,1-.8-.8,3.54,3.54,0,0,1-.3-1.1,2.17,2.17,0,0,1,1-1.9,4.21,4.21,0,0,1,2.6-.7,7.65,7.65,0,0,1,3,.6l-.5,1.2a6.9,6.9,0,0,0-2.6-.6,3.51,3.51,0,0,0-1.6.3.87.87,0,0,0-.5.9,1.45,1.45,0,0,0,.2.7,1,1,0,0,0,.6.5c.3.1.9.4,1.7.7a5.34,5.34,0,0,1,2.3,1.3A2.27,2.27,0,0,1,236.8,104.1Z" transform="translate(0 0)" style="fill:#1a1a1a"/><path d="M250.4,105.4h0a3.75,3.75,0,0,1-3.1,1.5,3.35,3.35,0,0,1-2.9-1.3,6.77,6.77,0,0,1,0-7.4,3.47,3.47,0,0,1,2.9-1.3,3.61,3.61,0,0,1,3,1.4h.1l-.1-.7V93h1.5v13.7h-1.2Zm-2.9.3a3,3,0,0,0,2.2-.8,4.26,4.26,0,0,0,.7-2.6V102a4.42,4.42,0,0,0-.7-2.9,2.66,2.66,0,0,0-2.2-.9,2.22,2.22,0,0,0-2,1,4.65,4.65,0,0,0-.7,2.8,4.46,4.46,0,0,0,.7,2.8A2.38,2.38,0,0,0,247.5,105.7Z" transform="translate(0 0)" style="fill:#1a1a1a"/><path d="M258.9,106.9a4.52,4.52,0,0,1-3.4-1.3,4.78,4.78,0,0,1-1.2-3.6,5.82,5.82,0,0,1,1.1-3.7,3.81,3.81,0,0,1,3.1-1.4,3.7,3.7,0,0,1,2.9,1.2,4.5,4.5,0,0,1,1.1,3.1v.9h-6.6a3.57,3.57,0,0,0,.9,2.6,3,3,0,0,0,2.3.9,7,7,0,0,0,3.1-.7v1.3a8.8,8.8,0,0,1-1.5.5A9.91,9.91,0,0,1,258.9,106.9Zm-.4-8.8a2.56,2.56,0,0,0-1.9.8,3.34,3.34,0,0,0-.8,2.1h5a3.28,3.28,0,0,0-.6-2.1A1.88,1.88,0,0,0,258.5,98.1Z" transform="translate(0 0)" style="fill:#1a1a1a"/><path d="M275.6,106.7l-.3-1.4h-.1a4.71,4.71,0,0,1-1.4,1.2,4.84,4.84,0,0,1-1.8.3,2.92,2.92,0,0,1-2.2-.7,2.86,2.86,0,0,1-.8-2.1c0-1.9,1.6-3,4.7-3.1l1.6-.1v-.6a2.65,2.65,0,0,0-.5-1.7c-.3-.4-.8-.5-1.6-.5a6,6,0,0,0-2.7.7l-.4-1.1a4.42,4.42,0,0,1,1.6-.6,9.85,9.85,0,0,1,1.7-.2,4,4,0,0,1,2.6.8,3,3,0,0,1,.8,2.5v6.6Zm-3.3-1a2.82,2.82,0,0,0,2.1-.7,2.86,2.86,0,0,0,.8-2.1V102l-1.5.1a4.94,4.94,0,0,0-2.5.5,1.76,1.76,0,0,0-.3,2.7A2,2,0,0,0,272.3,105.7Z" transform="translate(0 0)" style="fill:#1a1a1a"/><path d="M282.8,105.7a1.48,1.48,0,0,0,.7-.1c.2,0,.4-.1.6-.1v1.1a6.37,6.37,0,0,1-.7.2c-.3,0-.6.1-.8.1-1.9,0-2.8-1-2.8-2.9V98.3h-1.4v-.7l1.4-.6.6-2.1h.8v2.2H284v1.1h-2.8v5.7a1.7,1.7,0,0,0,.4,1.3A1.66,1.66,0,0,0,282.8,105.7Z" transform="translate(0 0)" style="fill:#1a1a1a"/><path d="M285.9,94.5a1.17,1.17,0,0,1,.2-.7,1.07,1.07,0,0,1,.6-.2,1.42,1.42,0,0,1,.6.2,1,1,0,0,1,0,1.4.73.73,0,0,1-.6.2,1.07,1.07,0,0,1-.6-.2A1.45,1.45,0,0,1,285.9,94.5Zm1.6,12.2H286V97.1h1.5Z" transform="translate(0 0)" style="fill:#1a1a1a"/><path d="M292.7,106.7,289,97.1h1.6l2.1,5.7a19.47,19.47,0,0,1,.8,2.6h.1c.1-.3.3-1,.6-1.9s1.1-3.1,2.3-6.4h1.6l-3.7,9.6Z" transform="translate(0 0)" style="fill:#1a1a1a"/><path d="M299.5,94.5a1.17,1.17,0,0,1,.2-.7,1.07,1.07,0,0,1,.6-.2,1.42,1.42,0,0,1,.6.2,1,1,0,0,1,0,1.4.73.73,0,0,1-.6.2,1.07,1.07,0,0,1-.6-.2A.84.84,0,0,1,299.5,94.5Zm1.5,12.2h-1.5V97.1H301Z" transform="translate(0 0)" style="fill:#1a1a1a"/><path d="M310.7,105.4h0a3.75,3.75,0,0,1-3.1,1.5,3.35,3.35,0,0,1-2.9-1.3,6.77,6.77,0,0,1,0-7.4,3.47,3.47,0,0,1,2.9-1.3,3.61,3.61,0,0,1,3,1.4h.1l-.1-.7V93h1.5v13.7h-1.2Zm-2.9.3a3,3,0,0,0,2.2-.8,4.26,4.26,0,0,0,.7-2.6V102a4.42,4.42,0,0,0-.7-2.9,2.66,2.66,0,0,0-2.2-.9,2.22,2.22,0,0,0-2,1,4.65,4.65,0,0,0-.7,2.8,4.46,4.46,0,0,0,.7,2.8A2.38,2.38,0,0,0,307.8,105.7Z" transform="translate(0 0)" style="fill:#1a1a1a"/><path d="M321.1,106.7l-.3-1.4h-.1a4.71,4.71,0,0,1-1.4,1.2,4.84,4.84,0,0,1-1.8.3,2.92,2.92,0,0,1-2.2-.7,2.86,2.86,0,0,1-.8-2.1c0-1.9,1.6-3,4.7-3.1l1.6-.1v-.6a2.65,2.65,0,0,0-.5-1.7c-.3-.4-.8-.5-1.6-.5a6,6,0,0,0-2.7.7l-.4-1.1a4.42,4.42,0,0,1,1.6-.6,9.85,9.85,0,0,1,1.7-.2,4,4,0,0,1,2.6.8,3,3,0,0,1,.8,2.5v6.6Zm-3.3-1a2.82,2.82,0,0,0,2.1-.7,2.86,2.86,0,0,0,.8-2.1V102l-1.5.1a4.94,4.94,0,0,0-2.5.5,1.76,1.76,0,0,0-.3,2.7A2,2,0,0,0,317.8,105.7Z" transform="translate(0 0)" style="fill:#1a1a1a"/><path d="M331.7,105.4h0a3.75,3.75,0,0,1-3.1,1.5,3.35,3.35,0,0,1-2.9-1.3,6.77,6.77,0,0,1,0-7.4,3.47,3.47,0,0,1,2.9-1.3,3.61,3.61,0,0,1,3,1.4h.1l-.1-.7V93h1.5v13.7h-1.2Zm-2.9.3a3,3,0,0,0,2.2-.8,4.26,4.26,0,0,0,.7-2.6V102a4.42,4.42,0,0,0-.7-2.9,2.66,2.66,0,0,0-2.2-.9,2.22,2.22,0,0,0-2,1,4.65,4.65,0,0,0-.7,2.8,4.46,4.46,0,0,0,.7,2.8A2.38,2.38,0,0,0,328.8,105.7Z" transform="translate(0 0)" style="fill:#1a1a1a"/><path d="M340.3,106.9a4.52,4.52,0,0,1-3.4-1.3,4.78,4.78,0,0,1-1.2-3.6,5.82,5.82,0,0,1,1.1-3.7,3.81,3.81,0,0,1,3.1-1.4,3.7,3.7,0,0,1,2.9,1.2,4.5,4.5,0,0,1,1.1,3.1v.9h-6.6a3.57,3.57,0,0,0,.9,2.6,3,3,0,0,0,2.3.9,7,7,0,0,0,3.1-.7v1.3a8.8,8.8,0,0,1-1.5.5A11,11,0,0,1,340.3,106.9Zm-.4-8.8a2.56,2.56,0,0,0-1.9.8,3.34,3.34,0,0,0-.8,2.1h5a3.28,3.28,0,0,0-.6-2.1A2.14,2.14,0,0,0,339.9,98.1Z" transform="translate(0 0)" style="fill:#1a1a1a"/><path d="M352.5,104.1a2.39,2.39,0,0,1-1,2.1,4.65,4.65,0,0,1-2.8.7,6.12,6.12,0,0,1-3-.6v-1.4l1.5.6a3.89,3.89,0,0,0,1.5.2,3.21,3.21,0,0,0,1.8-.4,1.08,1.08,0,0,0,.6-1.1,1.39,1.39,0,0,0-.5-1,5.57,5.57,0,0,0-1.9-.9,6.75,6.75,0,0,1-1.9-.9,1.55,1.55,0,0,1-.8-.8,3.54,3.54,0,0,1-.3-1.1,2.17,2.17,0,0,1,1-1.9,4.21,4.21,0,0,1,2.6-.7,7.65,7.65,0,0,1,3,.6l-.5,1.2a6.9,6.9,0,0,0-2.6-.6,3.51,3.51,0,0,0-1.6.3.87.87,0,0,0-.5.9,1.45,1.45,0,0,0,.2.7,1,1,0,0,0,.6.5c.3.1.9.4,1.7.7a5.34,5.34,0,0,1,2.3,1.3A2.27,2.27,0,0,1,352.5,104.1Z" transform="translate(0 0)" style="fill:#1a1a1a"/><path d="M366.1,105.4h0a3.75,3.75,0,0,1-3.1,1.5,3.35,3.35,0,0,1-2.9-1.3,6.77,6.77,0,0,1,0-7.4,3.47,3.47,0,0,1,2.9-1.3,3.61,3.61,0,0,1,3,1.4h.1l-.1-.7V93h1.5v13.7h-1.2Zm-2.9.3a3,3,0,0,0,2.2-.8,4.26,4.26,0,0,0,.7-2.6V102a4.42,4.42,0,0,0-.7-2.9,2.66,2.66,0,0,0-2.2-.9,2.22,2.22,0,0,0-2,1,4.65,4.65,0,0,0-.7,2.8,4.46,4.46,0,0,0,.7,2.8A2.38,2.38,0,0,0,363.2,105.7Z" transform="translate(0 0)" style="fill:#1a1a1a"/><path d="M376.5,106.7l-.3-1.4h-.1a4.71,4.71,0,0,1-1.4,1.2,4.84,4.84,0,0,1-1.8.3,2.92,2.92,0,0,1-2.2-.7,2.86,2.86,0,0,1-.8-2.1c0-1.9,1.6-3,4.7-3.1l1.6-.1v-.6a2.65,2.65,0,0,0-.5-1.7c-.3-.4-.8-.5-1.6-.5a6,6,0,0,0-2.7.7l-.4-1.1a4.42,4.42,0,0,1,1.6-.6,9.85,9.85,0,0,1,1.7-.2,4,4,0,0,1,2.6.8,3,3,0,0,1,.8,2.5v6.6Zm-3.3-1a2.82,2.82,0,0,0,2.1-.7,2.86,2.86,0,0,0,.8-2.1V102l-1.5.1a4.94,4.94,0,0,0-2.5.5,1.76,1.76,0,0,0-.3,2.7A2,2,0,0,0,373.2,105.7Z" transform="translate(0 0)" style="fill:#1a1a1a"/><path d="M391.5,104.1a2.39,2.39,0,0,1-1,2.1,4.65,4.65,0,0,1-2.8.7,6.12,6.12,0,0,1-3-.6v-1.4l1.5.6a7.72,7.72,0,0,0,1.5.2,3.21,3.21,0,0,0,1.8-.4,1.08,1.08,0,0,0,.6-1.1,1.39,1.39,0,0,0-.5-1,5.57,5.57,0,0,0-1.9-.9,6.75,6.75,0,0,1-1.9-.9,1.55,1.55,0,0,1-.8-.8,3.54,3.54,0,0,1-.3-1.1,2.17,2.17,0,0,1,1-1.9,4.21,4.21,0,0,1,2.6-.7,7.65,7.65,0,0,1,3,.6l-.5,1.2a6.9,6.9,0,0,0-2.6-.6,3.51,3.51,0,0,0-1.6.3.87.87,0,0,0-.5.9,1.45,1.45,0,0,0,.2.7,1,1,0,0,0,.6.5c.3.1.9.4,1.7.7a5.34,5.34,0,0,1,2.3,1.3A2.27,2.27,0,0,1,391.5,104.1Z" transform="translate(0 0)" style="fill:#1a1a1a"/><path d="M397.9,106.9a4.52,4.52,0,0,1-3.4-1.3,5.22,5.22,0,0,1-1.2-3.6,5.82,5.82,0,0,1,1.1-3.7,4,4,0,0,1,3.1-1.4,3.7,3.7,0,0,1,2.9,1.2,4.5,4.5,0,0,1,1.1,3.1v.9h-6.6a3.57,3.57,0,0,0,.9,2.6,3,3,0,0,0,2.3.9,7,7,0,0,0,3.1-.7v1.3a8.8,8.8,0,0,1-1.5.5A9.91,9.91,0,0,1,397.9,106.9Zm-.4-8.8a2.2,2.2,0,0,0-1.8.8,3.34,3.34,0,0,0-.8,2.1h5a3.28,3.28,0,0,0-.6-2.1A2.2,2.2,0,0,0,397.5,98.1Z" transform="translate(0 0)" style="fill:#1a1a1a"/><path d="M416.2,106.7v-6.3a2.65,2.65,0,0,0-.5-1.7,1.75,1.75,0,0,0-1.5-.6,2.48,2.48,0,0,0-2,.8,3.81,3.81,0,0,0-.7,2.4v5.4H410v-6.3a2.65,2.65,0,0,0-.5-1.7,1.75,1.75,0,0,0-1.5-.6,2.48,2.48,0,0,0-2,.8,4.47,4.47,0,0,0-.6,2.7v5.1H404V97.1h1.2l.2,1.3h.1a3.18,3.18,0,0,1,1.2-1.1,3.29,3.29,0,0,1,1.7-.4,2.93,2.93,0,0,1,3,1.6h.1a3.45,3.45,0,0,1,1.2-1.2,3.81,3.81,0,0,1,1.9-.4,3.29,3.29,0,0,1,2.4.8,4,4,0,0,1,.8,2.7v6.3Z" transform="translate(0 0)" style="fill:#1a1a1a"/><path d="M426.6,106.7l-.3-1.4h-.1a4.71,4.71,0,0,1-1.4,1.2,4.84,4.84,0,0,1-1.8.3,2.92,2.92,0,0,1-2.2-.7,2.86,2.86,0,0,1-.8-2.1c0-1.9,1.6-3,4.7-3.1l1.6-.1v-.6a2.65,2.65,0,0,0-.5-1.7c-.3-.4-.8-.5-1.6-.5a6,6,0,0,0-2.7.7l-.4-1.1a4.42,4.42,0,0,1,1.6-.6,9.85,9.85,0,0,1,1.7-.2,4,4,0,0,1,2.6.8,3,3,0,0,1,.8,2.5v6.6Zm-3.3-1a2.82,2.82,0,0,0,2.1-.7,2.86,2.86,0,0,0,.8-2.1V102l-1.5.1a4.94,4.94,0,0,0-2.5.5,1.76,1.76,0,0,0-.3,2.7A2.12,2.12,0,0,0,423.3,105.7Z" transform="translate(0 0)" style="fill:#1a1a1a"/><path d="M437.3,106.7v-6.2a3,3,0,0,0-.5-1.8,2.06,2.06,0,0,0-1.7-.6,3,3,0,0,0-2.2.8,3.81,3.81,0,0,0-.7,2.7v5.1h-1.5V97.1h1.2l.2,1.3h.1a2.85,2.85,0,0,1,1.3-1.1,3.42,3.42,0,0,1,1.8-.4,3.84,3.84,0,0,1,2.6.8,3.51,3.51,0,0,1,.9,2.7v6.3Z" transform="translate(0 0)" style="fill:#1a1a1a"/><path d="M447.7,106.7l-.3-1.4h-.1a4.71,4.71,0,0,1-1.4,1.2,4.84,4.84,0,0,1-1.8.3,2.92,2.92,0,0,1-2.2-.7,2.86,2.86,0,0,1-.8-2.1c0-1.9,1.6-3,4.7-3.1l1.6-.1v-.6a2.65,2.65,0,0,0-.5-1.7c-.3-.4-.8-.5-1.6-.5a6,6,0,0,0-2.7.7l-.4-1.1a4.42,4.42,0,0,1,1.6-.6,9.85,9.85,0,0,1,1.7-.2,4,4,0,0,1,2.6.8,3,3,0,0,1,.8,2.5v6.6Zm-3.3-1a2.82,2.82,0,0,0,2.1-.7,2.86,2.86,0,0,0,.8-2.1V102l-1.5.1a4.94,4.94,0,0,0-2.5.5,1.76,1.76,0,0,0-.3,2.7A2,2,0,0,0,444.4,105.7Z" transform="translate(0 0)" style="fill:#1a1a1a"/><path d="M57,527.6v2.3H52.4v2.7h4v2.3h-4v2.9H57v2.3H49.4V527.4H57Z" transform="translate(0 0)" style="fill:#fff"/><path d="M62.7,530.3v1.5a3.11,3.11,0,0,1,3-1.6,3.49,3.49,0,0,1,2.8,1.2,4.5,4.5,0,0,1,1.1,3.1v5.9H66.5v-5.5a2.46,2.46,0,0,0-.5-1.5,1.62,1.62,0,0,0-1.4-.5,2,2,0,0,0-1.4.5,2.46,2.46,0,0,0-.5,1.5v5.5H59.6v-10h3.1Z" transform="translate(0 0)" style="fill:#fff"/><path d="M71,530.3h3.3l2.3,7.5,2.3-7.5h3.3l-3.6,10h-4Z" transform="translate(0 0)" style="fill:#fff"/><path d="M86.3,529.1a1.9,1.9,0,0,1-1.3.5,2.11,2.11,0,0,1-1.3-.5,1.9,1.9,0,0,1-.5-1.3,2.11,2.11,0,0,1,.5-1.3A1.9,1.9,0,0,1,85,526a2.11,2.11,0,0,1,1.3.5,1.9,1.9,0,0,1,.5,1.3A1.54,1.54,0,0,1,86.3,529.1Zm-2.8,11.2v-10h3.1v10Z" transform="translate(0 0)" style="fill:#fff"/><path d="M89.9,539a5.92,5.92,0,0,1,0-7.4,4.12,4.12,0,0,1,3.2-1.4,3.3,3.3,0,0,1,2.9,1.4v-1.3h3.1v10H96v-1.5a3.31,3.31,0,0,1-3,1.6A4.1,4.1,0,0,1,89.9,539Zm5.5-1.9a2.48,2.48,0,0,0,.7-1.8,2.14,2.14,0,0,0-.7-1.8,2.17,2.17,0,0,0-3,0,2.48,2.48,0,0,0-.7,1.8,2.14,2.14,0,0,0,.7,1.8,2.18,2.18,0,0,0,3,0Z" transform="translate(0 0)" style="fill:#fff"/><path d="M104.9,530.3v1.9a3.3,3.3,0,0,1,2.9-2v3.1H107a2.54,2.54,0,0,0-1.6.5c-.4.3-.5.9-.5,1.8v4.8h-3.1v-10h3.1Z" transform="translate(0 0)" style="fill:#fff"/><line x1="573" y1="20" x2="590" y2="20" style="fill:none;stroke:#fff;stroke-miterlimit:10;stroke-width:2px"/><line x1="607.3" y1="26.1" x2="619.4" y2="14.1" style="fill:none;stroke:#fff;stroke-miterlimit:10;stroke-width:2px"/><polygon points="613.4 10.8 622.7 10.8 622.7 20 613.4 10.8" style="fill:#fff"/><polygon points="613.4 29.3 604.2 29.3 604.2 20 613.4 29.3" style="fill:#fff"/><line x1="637" y1="27.9" x2="652.8" y2="12.2" style="fill:none;stroke:#fff;stroke-miterlimit:10;stroke-width:2px"/><line x1="652.8" y1="27.9" x2="637" y2="12.2" style="fill:none;stroke:#fff;stroke-miterlimit:10;stroke-width:2px"/><rect x="26.1" y="139.9" width="617.8" height="348.1" style="fill:#fff"/><path d="M642.9,140.9V487H27.1V140.9H642.9m2-2H25.1V489H644.9V138.9Z" transform="translate(0 0)" style="fill:#c4d1d6"/><line x1="131" y1="515" x2="131" y2="555" style="fill:none;stroke:#c4d1d6;stroke-miterlimit:10;stroke-width:2px"/><polygon points="149.7 533.4 143.7 539.4 137.7 533.4 149.7 533.4" style="fill:#fff"/><path d="M193.4,541.7l-.9-2.8h-6.1l-.9,2.8h-4.4l5.9-17h5l5.9,17Zm-6-6h4l-2-6Z" transform="translate(0 0)" style="fill:#1c55ff"/><line x1="182" y1="547" x2="198" y2="547" style="fill:none;stroke:#1c55ff;stroke-miterlimit:10;stroke-width:2px"/><path d="M227.7,531.1v10.8a1.8,1.8,0,0,1-.7,1.5c-1.3,1.2-4.4,3.2-8.2-.1a2.13,2.13,0,0,1-.7-1.5V528.1a2.09,2.09,0,0,1,.8-1.6,4,4,0,0,1,4.9,0,2.14,2.14,0,0,1,.8,1.7v10.4a2,2,0,0,1-3.4,1.4h0l-.1-.1v-9.4" transform="translate(0 0)" style="fill:none;stroke:#1c55ff;stroke-miterlimit:10;stroke-width:2px"/><rect x="622.3" y="530.4" width="16.3" height="16.4" style="fill:#1c55ff"/><path d="M635.3,526h-2c0-2-.5-2-1.2-2h-3.3c-.6,0-1.2,0-1.2,2h-2c-1.9,0-3.4,0-3.4,3h16.3C638.7,526,637.1,526,635.3,526Z" transform="translate(0 0)" style="fill:#1c55ff"/><circle cx="604.7" cy="526.7" r="2.2" style="fill:#1c55ff"/><circle cx="604.7" cy="535.4" r="2.2" style="fill:#1c55ff"/><circle cx="604.7" cy="544" r="2.2" style="fill:#1c55ff"/><rect x="98.2" y="89.2" width="365.03" height="25.01" style="fill:#fff"/><rect x="65.5" y="49.31" width="345.4" height="25.69" style="fill:#fff"/></svg>