<?xml version="1.0" encoding="utf-8"?>
<!-- Generator: Adobe Illustrator 19.0.0, SVG Export Plug-In . SVG Version: 6.00 Build 0)  -->
<svg version="1.1" id="Camada_1" xmlns="http://www.w3.org/2000/svg" xmlns:xlink="http://www.w3.org/1999/xlink" x="0px" y="0px"
	 viewBox="0 0 670 534.8" style="enable-background:new 0 0 670 534.8;" xml:space="preserve">
<style type="text/css">
	.st0{fill:#FFFFFF;}
	.st1{fill:none;}
	.st2{fill:#1C55FF;}
	.st3{font-family:'OpenSans-Bold';}
	.st4{font-size:16px;}
	.st5{fill:#444444;}
	.st6{font-family:'OpenSans-Regular';}
	.st7{fill:#1A1A1A;}
	.st8{fill:none;stroke:#D6D6D6;stroke-miterlimit:10;}
	.st9{font-family:'Poppins';}
	.st10{fill:none;stroke:#FFFFFF;stroke-width:2;stroke-miterlimit:10;}
	.st11{fill:#C4D1D6;}
	.st12{fill:none;stroke:#C4D1D6;stroke-width:2;stroke-miterlimit:10;}
	.st13{font-size:24.1155px;}
	.st14{fill:none;stroke:#1C55FF;stroke-width:2;stroke-miterlimit:10;}
</style>
<g>
	<rect id="XMLID_34_" x="0.5" y="40.5" class="st0" width="669" height="493.8"/>
	<g id="XMLID_30_">
		<path id="XMLID_31_" class="st0" d="M669,41v492.8H1V41H669 M670,40H0v494.8h670V40L670,40z"/>
	</g>
</g>
<rect id="XMLID_6_" x="22" y="54.5" class="st1" width="627" height="14.5"/>
<text transform="matrix(1 0 0 1 21.9996 66.658)"><tspan x="0" y="0" class="st2 st3 st4">Para</tspan><tspan x="36.6" y="0" class="st5 st6 st4"> </tspan><tspan x="40.8" y="0" class="st7 st6 st4">robertoshimoshi@asadvogados.com.br</tspan></text>
<rect class="st2" width="670" height="40"/>
<line class="st8" x1="0" y1="79.5" x2="670" y2="79.5"/>
<line class="st8" x1="670" y1="119.5" x2="0" y2="119.5"/>
<g>
	<rect id="XMLID_24_" x="25.1" y="473.3" class="st2" width="130" height="40"/>
</g>
<rect id="XMLID_5_" x="15" y="13.5" class="st1" width="346" height="13.1"/>
<text transform="matrix(1 0 0 1 15.0001 25.6255)" class="st0 st6 st4">Nova mensagem</text>
<rect id="XMLID_4_" x="22" y="93" class="st1" width="627" height="15"/>
<text transform="matrix(1 0 0 1 22 105.1575)"><tspan x="0" y="0" class="st2 st3 st4">Assunto</tspan><tspan x="64.8" y="0" class="st5 st6 st4"> </tspan><tspan x="69" y="0" class="st7 st6 st4">Re: Documentos de atividades da semana</tspan></text>
<rect id="XMLID_3_" x="25.1" y="486.8" class="st1" width="105.9" height="13.1"/>
<text transform="matrix(1 0 0 1 51.3257 498.6086)" class="st0 st9 st4">Enviar</text>
<g>
	<line class="st10" x1="573" y1="20" x2="590" y2="20"/>
	<g>
		<line class="st10" x1="607.3" y1="26.1" x2="619.4" y2="14"/>
		<polygon class="st0" points="613.4,10.7 622.7,10.7 622.7,20 		"/>
		<polygon class="st0" points="613.4,29.3 604.2,29.3 604.2,20 		"/>
	</g>
	<g>
		<line class="st10" x1="637" y1="27.9" x2="652.8" y2="12.2"/>
		<line class="st10" x1="652.8" y1="27.9" x2="637" y2="12.2"/>
	</g>
</g>
<g>
	<rect id="XMLID_21_" x="26.1" y="139.8" class="st0" width="617.8" height="312.1"/>
	<path id="XMLID_18_" class="st11" d="M642.9,140.8V451H27.1V140.8H642.9 M644.9,138.8H25.1V453h619.8V138.8L644.9,138.8z"/>
</g>
<line class="st12" x1="131" y1="473" x2="131" y2="513"/>
<polygon class="st0" points="149.7,491.3 143.7,497.3 137.7,491.3 "/>
<g>
	<rect id="XMLID_2_" x="178.2" y="481.8" class="st1" width="22.5" height="19.8"/>
	<text transform="matrix(1 0 0 1 180.8389 499.6721)" class="st2 st9 st13">A</text>
	<line class="st14" x1="182" y1="505" x2="198" y2="505"/>
</g>
<path class="st14" d="M227.7,489v10.8c0,0.6-0.2,1.1-0.7,1.5c-1.3,1.2-4.4,3.2-8.2-0.1c-0.4-0.4-0.7-0.9-0.7-1.5v-13.7
	c0-0.6,0.3-1.2,0.8-1.6c1-0.7,2.8-1.5,4.9,0c0.5,0.4,0.8,1,0.8,1.7v10.4c0,1.8-2.1,2.7-3.4,1.4l0,0c0,0-0.1-0.1-0.1-0.1v-9.4"/>
<g>
	<rect x="622.3" y="488.4" class="st2" width="16.3" height="16.4"/>
	<path class="st2" d="M635.3,484h-2c0-2-0.5-2-1.2-2h-3.3c-0.6,0-1.2,0-1.2,2h-2c-1.9,0-3.4,0-3.4,3h16.3
		C638.7,484,637.1,484,635.3,484z"/>
</g>
<g>
	<circle class="st2" cx="604.7" cy="484.7" r="2.2"/>
	<circle class="st2" cx="604.7" cy="493.3" r="2.2"/>
	<circle class="st2" cx="604.7" cy="502" r="2.2"/>
</g>
<rect id="XMLID_1_" x="38" y="153.8" class="st1" width="594.9" height="294.6"/>
<text transform="matrix(1 0 0 1 38.0493 165.9944)"><tspan x="0" y="0" class="st7 st6 st4">Boa tarde, Roberto, tudo bem?</tspan><tspan x="0" y="36" class="st7 st6 st4">Recebi o seu e-mail, obrigada.</tspan><tspan x="0" y="72" class="st7 st6 st4">Porém, estou com dúvidas no material 2, 3 e 5. Não entendi muito bem o que é </tspan><tspan x="0" y="90" class="st7 st6 st4">para eu fazer nestas atividades. Você teria um tempo para me explicar? Podem</tspan><tspan x="588.4" y="90" class="st7 st6 st4">-</tspan><tspan x="0" y="108" class="st7 st6 st4">os fazer uma reunião presencial ou, se achar melhor, me chamar por video </tspan><tspan x="0" y="126" class="st7 st6 st4">chamada, o que preferir.</tspan><tspan x="0" y="162" class="st7 st6 st4">Espero seu retorno..</tspan><tspan x="0" y="198" class="st7 st6 st4">Atenciosamente</tspan><tspan x="0" y="216" class="st7 st6 st4">Rebeca Santos da Silva</tspan><tspan x="0" y="234" class="st7 st6 st4">Auxiliar Administrativo</tspan><tspan x="0" y="252" class="st7 st6 st4">A&amp;S Advogados</tspan><tspan x="0" y="270" class="st7 st6 st4">rebeca.santos@asadvogados.com.br</tspan></text>
</svg>
