<?xml version="1.0" encoding="UTF-8"?><svg id="Camada_1" xmlns="http://www.w3.org/2000/svg" viewBox="0 0 52.09 27.06"><path d="M51.09,9.68v10.8c0,.58-.24,1.12-.67,1.52-1.3,1.2-4.39,3.19-8.21-.1-.43-.37-.65-.93-.65-1.5V6.72c0-.63,.28-1.25,.79-1.62,.99-.72,2.83-1.53,4.94,0,.53,.38,.83,1.01,.83,1.66v10.41c0,1.77-2.13,2.66-3.39,1.42h0s-.06-.09-.06-.15V9.06" style="fill:none; stroke:#1c55ff; stroke-miterlimit:10; stroke-width:2px;"/><text transform="translate(3.07 20.7)" style="fill:#1c55ff; font-family:Lato-Regular, Lato; font-size:24.12px;"><tspan x="0" y="0">A</tspan></text><line x1="3.26" y1="26.06" x2="19.26" y2="26.06" style="fill:none; stroke:#1c55ff; stroke-miterlimit:10; stroke-width:2px;"/></svg>